# xmcd
#
# Track frame offsets: 
#        150
#        13216
#        26372
#        39830
#        52269
#        65852
#        79445
#        93947
#        106864
#        120235
#        132561
#        145798
#        160546
#        172308
#        185501
#        198753
#        211729
#        225708
#        238664
#        252465
#        266063
#        277033
#        289152
#        303768
#
# Disc length: 4212 seconds
#
# Revision: 1
# Processed by: cddbd v1.5.2PL0 Copyright (c) Steve Scherf et al.
# Submitted via: ExactAudioCopy v0.99pb3
#
DISCID=5c107218
DTITLE=Ida Cox - Complete Recorded Works 1923-1938 (Vol. 3 - 1925-1927
DTITLE=)
DYEAR=1995
DGENRE=Blues
TTITLE0=Cold Black Ground Blues
TTITLE1=Someday Blues
TTITLE2=Mister Man - Part I (Duet With Papa Charlie Jackson)
TTITLE3=Mister Man - Part II (Duet With Papa Charlie Jackson)
TTITLE4=Mistreatin' Daddy Blues (take 1)
TTITLE5=Long Distance Blues
TTITLE6=Southern Woman's Blues (take 2)
TTITLE7=Lonesome Blues
TTITLE8=How Long Daddy, How Long
TTITLE9=How Can I Miss You When I've Got Dead Aim (take 2)
TTITLE10=I Ain't Got Nobody (take 2)
TTITLE11=Coffin Blues
TTITLE12=Rambling Blues (take 2)
TTITLE13=One Time Woman Blues
TTITLE14=Trouble Trouble Blues
TTITLE15=Do Lawd Do (take 1)
TTITLE16=I'm Leaving Here Blues (take 1)
TTITLE17=Night and Day Blues (take 2)
TTITLE18=Don't Blame Me
TTITLE19=Sottle De Doo
TTITLE20='Fore Day Creep
TTITLE21=Gypsy Glass Blues
TTITLE22=Mojo Hand Blues
TTITLE23=Alphonsia Blues
EXTD=
EXTT0=
EXTT1=
EXTT2=
EXTT3=
EXTT4=
EXTT5=
EXTT6=
EXTT7=
EXTT8=
EXTT9=
EXTT10=
EXTT11=
EXTT12=
EXTT13=
EXTT14=
EXTT15=
EXTT16=
EXTT17=
EXTT18=
EXTT19=
EXTT20=
EXTT21=
EXTT22=
EXTT23=
PLAYORDER=
